<?xml version="1.0" encoding="UTF-8" standalone="no"?>
<!-- Created with Inkscape (http://www.inkscape.org/) -->

<svg
   width="12.213193mm"
   height="12.213193mm"
   viewBox="0 0 12.213193 12.213193"
   version="1.1"
   id="svg1"
   xml:space="preserve"
   xmlns="http://www.w3.org/2000/svg"
   xmlns:svg="http://www.w3.org/2000/svg"><defs
     id="defs1" /><g
     id="layer1"
     transform="translate(-4.4971909,-87.769902)"><g
       id="g28"
       transform="matrix(0.61065966,0,0,0.61065966,1.750937,1.8503717)"><rect
         style="fill:#000000;fill-opacity:1;stroke:#ffffff;stroke-width:0.20945;stroke-opacity:0.5"
         id="rect5-1-0-6-8-5"
         width="19.79055"
         height="19.79055"
         x="4.6019173"
         y="140.80426" /><g
         style="fill:#ffffff"
         id="g27"
         transform="matrix(0.72760417,0,0,0.72760417,8.676359,144.8787)"><g
           id="SVGRepo_bgCarrier-42"
           stroke-width="0" /><g
           id="SVGRepo_tracerCarrier-87"
           stroke-linecap="round"
           stroke-linejoin="round" /><g
           id="SVGRepo_iconCarrier-3"><path
             fill="#ff"
             fill-rule="evenodd"
             d="m 524,109 h -1.5023 c -0.28286,0 -0.4977,0.22386 -0.4977,0.5 0,0.26807 0.22283,0.5 0.4977,0.5 H 524 v 1.5023 c 0,0.28286 0.22386,0.4977 0.5,0.4977 0.26807,0 0.5,-0.22283 0.5,-0.4977 V 110 h 1.5023 c 0.28286,0 0.4977,-0.22386 0.4977,-0.5 0,-0.26807 -0.22283,-0.5 -0.4977,-0.5 H 525 v -1.5023 C 525,107.21484 524.77614,107 524.5,107 c -0.26807,0 -0.5,0.22283 -0.5,0.4977 z m -5,3 c 0,-4.41828 3.59071,-8 8,-8 4.41828,0 8,3.59071 8,8 0,4.41828 -3.59071,8 -8,8 -4.41828,0 -8,-3.59071 -8,-8 z m 13,-4.8995 c -2.73367,-2.73367 -7.16583,-2.73367 -9.8995,0 -2.73366,2.73368 -2.73366,7.16583 0,9.8995 z m -4,7.3995 c 0,-0.27614 0.21506,-0.5 0.49048,-0.5 h 3.01904 c 0.27088,0 0.49048,0.23193 0.49048,0.5 0,0.27614 -0.21506,0.5 -0.49048,0.5 h -3.01904 C 528.2196,115 528,114.76807 528,114.5 Z"
             transform="translate(-519,-104)"
             id="path1-0" /></g></g></g></g></svg>
