<?xml version="1.0" encoding="UTF-8" standalone="no"?>
<!-- Created with Inkscape (http://www.inkscape.org/) -->

<svg
   width="12.213193mm"
   height="12.213193mm"
   viewBox="0 0 12.213193 12.213193"
   version="1.1"
   id="svg1"
   xml:space="preserve"
   xmlns="http://www.w3.org/2000/svg"
   xmlns:svg="http://www.w3.org/2000/svg"><defs
     id="defs1" /><g
     id="layer1"
     transform="translate(-4.4971903,-32.425111)"><g
       id="g15"
       transform="matrix(0.61065966,0,0,0.61065966,1.750937,1.8503717)"><rect
         style="fill:#000000;fill-opacity:1;stroke:#ffffff;stroke-width:0.20945;stroke-opacity:0.5"
         id="rect5-1-0-3"
         width="19.79055"
         height="19.79055"
         x="4.6019163"
         y="50.173103" /><g
         style="fill:none"
         id="g14"
         transform="matrix(-0.91586537,0,0,0.91586537,28.226013,49.409192)"><g
           id="SVGRepo_bgCarrier-7"
           stroke-width="0" /><g
           id="SVGRepo_tracerCarrier-5"
           stroke-linecap="round"
           stroke-linejoin="round" /><g
           id="SVGRepo_iconCarrier-12"
           transform="matrix(0.53333334,0,0,0.53333334,8.5899998,5.2383765)"><path
             fill-rule="evenodd"
             clip-rule="evenodd"
             d="m 13.0828,19.0632 c -0.4439,0.444 -0.8429,0.843 -1.2103,1.1868 H 21 c 0.4142,0 0.75,0.3358 0.75,0.75 0,0.4142 -0.3358,0.75 -0.75,0.75 H 9 c -0.01834,0 -0.03653,-7e-4 -0.05454,-0.002 C 8.24156,21.7211 7.64439,21.4169 7.05863,20.97 6.47124,20.5218 5.81539,19.866 5.01269,19.0632 L 4.93674,18.9873 C 4.13402,18.1846 3.47815,17.5288 3.03,16.9414 2.56159,16.3274 2.25,15.701 2.25,14.9522 2.25,14.2035 2.56159,13.577 3.03,12.9631 3.47816,12.3757 4.13402,11.7199 4.93674,10.9172 L 10.9172,4.93674 C 11.7199,4.13403 12.3757,3.47815 12.9631,3.03 13.577,2.56159 14.2035,2.25 14.9522,2.25 c 0.7488,0 1.3752,0.31159 1.9892,0.78 0.5874,0.44816 1.2432,1.10402 2.0459,1.90674 l 0.0759,0.07595 c 0.8028,0.8027 1.4586,1.45855 1.9068,2.04594 0.4684,0.61393 0.78,1.24039 0.78,1.98913 0,0.74873 -0.3116,1.37524 -0.78,1.98914 -0.4481,0.5874 -1.104,1.2432 -1.9067,2.0458 z M 11.9399,6.03539 C 12.7899,5.18538 13.3752,4.60235 13.873,4.22253 14.3535,3.85592 14.6633,3.75 14.9522,3.75 c 0.2889,0 0.5988,0.10592 1.0793,0.47253 0.4978,0.37982 1.0831,0.96285 1.9331,1.81286 0.85,0.85002 1.4331,1.4353 1.8129,1.93311 0.3666,0.4805 0.4725,0.79036 0.4725,1.07926 0,0.28889 -0.1059,0.59875 -0.4725,1.07924 -0.3798,0.4978 -0.9629,1.0831 -1.8129,1.9331 L 13.7713,16.2534 7.74662,10.2287 Z M 9.04776,20.25 c 0.28889,0 0.59875,-0.1059 1.07924,-0.4725 0.4978,-0.3798 1.0831,-0.9629 1.9331,-1.8129 L 12.7107,17.314 6.68596,11.2893 6.03539,11.9399 C 5.18538,12.7899 4.60235,13.3752 4.22253,13.873 3.85592,14.3535 3.75,14.6633 3.75,14.9522 c 0,0.2889 0.10592,0.5988 0.47253,1.0793 0.37982,0.4978 0.96285,1.0831 1.81286,1.9331 0.85002,0.85 1.4353,1.4331 1.93311,1.8129 0.4805,0.3666 0.79036,0.4725 1.07926,0.4725 z"
             fill="#ffffff"
             id="path1-1" /></g></g></g></g></svg>
