<?xml version="1.0" encoding="UTF-8" standalone="no"?>
<!-- Created with Inkscape (http://www.inkscape.org/) -->

<svg
   width="12.213147mm"
   height="12.213147mm"
   viewBox="0 0 12.213147 12.213147"
   version="1.1"
   id="svg1"
   xml:space="preserve"
   xmlns="http://www.w3.org/2000/svg"
   xmlns:svg="http://www.w3.org/2000/svg"><defs
     id="defs1" /><g
     id="layer1"
     transform="translate(-4.4971895,-18.588856)"><g
       id="g12"
       style="fill:none"
       transform="matrix(0.56674064,0,0,0.56674064,5.5457839,19.309978)"><rect
         style="fill:#000000;fill-opacity:1;stroke:#ffffff;stroke-width:0.20945;stroke-opacity:0.5"
         id="rect5-1-5"
         width="19.79055"
         height="19.79055"
         x="4.6019163"
         y="27.515312"
         transform="matrix(1.07749,0,0,1.07749,-6.6958978,-30.807036)" /><g
         id="SVGRepo_iconCarrier-5"
         transform="matrix(0.47402945,0,0,0.47402945,3.6310047,3.9255387)"><path
           d="m 7.00914,17.9998 -4.01,-4.01 c -1.34,-1.34 -1.34,-2.67 0,-4.01 l 6.68,-6.68 7.34996,7.35 c 0.37,0.37 0.37,0.97 0,1.34 l -6.02,6.02 c -1.31996,1.32 -2.65996,1.32 -3.99996,-0.01 z"
           stroke="#ffffff"
           stroke-width="1.5"
           stroke-miterlimit="10"
           stroke-linecap="round"
           stroke-linejoin="round"
           id="path1-3" /><path
           d="m 8.34961,1.9502 c -2.0026791,-2.0026791 1.34,1.33996 1.34,1.33996"
           stroke="#ffffff"
           stroke-width="1.5"
           stroke-miterlimit="10"
           stroke-linecap="round"
           stroke-linejoin="round"
           id="path2" /><path
           d="M 3,22 H 16"
           stroke="#ffffff"
           stroke-width="1.5"
           stroke-miterlimit="10"
           stroke-linecap="round"
           stroke-linejoin="round"
           id="path4" /><path
           opacity="0.4"
           d="m 18.85,15 c 0,0 -1.85,2.01 -1.85,3.24 0,1.02 0.83,1.85 1.85,1.85 1.02,0 1.85,-0.83 1.85,-1.85 C 20.7,17.01 18.85,15 18.85,15 Z"
           stroke="#ffffff"
           stroke-width="1.5"
           stroke-linecap="round"
           stroke-linejoin="round"
           id="path5"
           style="opacity:0.5;fill:none;stroke:#ffffff;stroke-width:0.781318;stroke-dasharray:none;stroke-opacity:1" /></g></g></g></svg>
