<?xml version="1.0" encoding="UTF-8" standalone="no"?>
<!-- Created with Inkscape (http://www.inkscape.org/) -->

<svg
   width="12.213193mm"
   height="12.213193mm"
   viewBox="0 0 12.213193 12.213193"
   version="1.1"
   id="svg1"
   xml:space="preserve"
   xmlns="http://www.w3.org/2000/svg"
   xmlns:svg="http://www.w3.org/2000/svg"><defs
     id="defs1" /><g
     id="layer1"
     transform="translate(-4.4971906,-60.097509)"><g
       id="g24"
       transform="matrix(0.61065966,0,0,0.61065966,1.750937,1.8503717)"><g
         id="g23"><rect
           style="fill:#000000;fill-opacity:1;stroke:#ffffff;stroke-width:0.20945;stroke-opacity:0.5"
           id="rect5-1-0-6-8-3"
           width="19.79055"
           height="19.79055"
           x="4.6019168"
           y="95.488686" /><g
           style="fill:none"
           id="g22"
           transform="matrix(0.5953125,0,0,0.5953125,7.3534419,98.240211)"><g
             id="SVGRepo_bgCarrier-4"
             stroke-width="0" /><g
             id="SVGRepo_tracerCarrier-9"
             stroke-linecap="round"
             stroke-linejoin="round" /><g
             id="SVGRepo_iconCarrier-14"
             style="stroke-width:1.26667;stroke-dasharray:none"
             transform="matrix(0.92272203,0,0,0.92272203,0.92733565,0.92733518)"><path
               d="M 12,3 V 21 M 12,3 9,6 m 3,-3 3,3 m -3,15 3,-3 M 12,21 9,18 M 3,12 H 21 M 3,12 6,15 M 3,12 6,9 m 15,3 -3,-3 m 3,3 -3,3"
               stroke="#ffffff"
               stroke-width="2"
               stroke-linecap="round"
               stroke-linejoin="round"
               id="path1-8"
               style="stroke-width:1.26667;stroke-dasharray:none" /></g></g></g></g></g></svg>
