<?xml version="1.0" encoding="UTF-8" standalone="no"?>
<!-- Created with Inkscape (http://www.inkscape.org/) -->

<svg
   width="12.213169mm"
   height="12.213169mm"
   viewBox="0 0 12.213169 12.213169"
   version="1.1"
   id="svg1"
   xml:space="preserve"
   xmlns="http://www.w3.org/2000/svg"
   xmlns:svg="http://www.w3.org/2000/svg"><defs
     id="defs1" /><g
     id="layer1"
     transform="translate(-4.4971909,-101.60591)"><g
       id="g32"
       transform="matrix(0.61065966,0,0,0.61065966,1.750937,1.8503717)"><rect
         style="fill:#000000;fill-opacity:1;stroke:#ffffff;stroke-width:0.20945;stroke-linecap:round;stroke-linejoin:round;stroke-opacity:0.5"
         id="rect5-1-0-6-8-29"
         width="19.79051"
         height="19.79051"
         x="4.6019173"
         y="163.46173" /><g
         style="fill:none;fill-opacity:1;stroke:#ffffff;stroke-width:5.47157;stroke-linecap:round;stroke-linejoin:round;stroke-dasharray:none;stroke-opacity:0.99"
         id="g31"
         transform="matrix(-0.09538062,-0.01615055,-0.01520255,0.10132847,19.773472,169.17778)"><g
           id="SVGRepo_bgCarrier-5"
           stroke-width="0"
           style="fill:none;fill-opacity:1;stroke:#ffffff;stroke-width:5.47157;stroke-linecap:round;stroke-linejoin:round;stroke-dasharray:none;stroke-opacity:0.99" /><g
           id="SVGRepo_tracerCarrier-4"
           stroke-linecap="round"
           stroke-linejoin="round"
           style="fill:none;fill-opacity:1;stroke:#ffffff;stroke-width:5.47157;stroke-linecap:round;stroke-linejoin:round;stroke-dasharray:none;stroke-opacity:0.99" /><g
           id="SVGRepo_iconCarrier-8"
           style="fill:none;fill-opacity:1;stroke:#ffffff;stroke-width:6.47912;stroke-linecap:round;stroke-linejoin:round;stroke-dasharray:none;stroke-opacity:0.99"
           transform="matrix(0.99999798,0,0,0.99999798,8.2640683e-4,-0.00315165)"><title
             id="title1" /><path
             d="m 90,24.0217 c 0.01391,-4.801758 -1.893383,-9.409596 -5.2969,-12.7968 -7.163227,-6.8438016 -18.442173,-6.8438016 -25.6054,0 L 46.23,24.0972 41.9121,19.78 c -5.656242,-5.687808 -14.172208,2.828158 -8.4844,8.4844 L 37.7461,32.5828 7.7578,62.5647 C 6.6321181,63.689464 5.99975,65.215594 6,66.8069 v 17.1152 c -0.00188,3.314487 2.6855132,6.00188 6,6 h 17.1152 c 1.591306,2.5e-4 3.117436,-0.632118 4.2422,-1.7578 L 63.34,58.176 l 4.3184,4.3184 c 5.656175,5.593091 14.077425,-2.828356 8.4842,-8.4844 L 71.825,49.6924 84.6973,36.8245 C 88.103906,33.436441 90.013367,28.826253 90,24.0217 Z M 71.825,49.6924 46.23,24.0972 Z"
             id="path1-36"
             style="fill:none;fill-opacity:1;stroke:#ffffff;stroke-width:6.47912;stroke-linecap:round;stroke-linejoin:round;stroke-dasharray:none;stroke-opacity:0.99" /></g><path
           style="opacity:1;fill:none;fill-opacity:1;fill-rule:nonzero;stroke:#ffffff;stroke-width:0.538308;stroke-linecap:round;stroke-linejoin:round;stroke-dasharray:none;stroke-dashoffset:0;stroke-opacity:0.99;paint-order:normal"
           d="m 77.568068,39.883187 c 6.080309,-6.077476 7.244715,-7.450081 8.29026,-9.772503 0.865501,-1.922526 1.441568,-5.536202 1.210539,-7.59376 C 86.452428,17.026876 82.842787,12.214445 77.761758,10.108499 76.028743,9.3902107 72.671325,8.8606921 70.781085,9.006307 69.962018,9.0697652 68.446242,9.3583866 67.412741,9.6473967 64.320474,10.51211 62.165906,12.167734 55.769368,18.594468 l -5.465731,5.491548 4.372057,4.378509 c 2.404632,2.408183 7.221687,7.233127 10.704579,10.722057 3.482886,3.488954 6.372252,6.34988 6.420808,6.357619 0.04856,0.0077 2.643785,-2.540245 5.767174,-5.662185 z"
           id="path41" /><path
           style="opacity:1;fill:none;fill-opacity:1;fill-rule:nonzero;stroke:#ffffff;stroke-width:0.538308;stroke-linecap:round;stroke-linejoin:round;stroke-dasharray:none;stroke-dashoffset:0;stroke-opacity:0.99;paint-order:normal"
           d="m 72.573935,44.371972 c 0.286491,-0.295665 0.652432,-0.687003 0.813197,-0.869617 0.160739,-0.182488 2.365032,-2.423933 4.898374,-4.980711 6.749497,-6.811916 7.395509,-7.781005 8.111744,-12.168529 0.351664,-2.154122 0.379344,-2.952062 0.151705,-4.369716 -0.379043,-2.360437 -1.240091,-4.442873 -2.641479,-6.388441 -1.503904,-2.087869 -3.088136,-3.459067 -5.324238,-4.608243 -1.490665,-0.766089 -2.166174,-0.977733 -4.125836,-1.2925863 -5.338236,-0.8586846 -9.130526,0.4520103 -13.832121,4.7774343 -0.86112,0.792235 -3.39315,3.262376 -5.626736,5.489204 -3.94796,3.936007 -4.050573,4.061619 -3.684306,4.51018 0.788837,0.966049 20.293455,20.367633 20.510602,20.402244 0.125496,0.02 0.462596,-0.205529 0.749094,-0.501219 z"
           id="path42" /><path
           style="opacity:1;fill:none;fill-opacity:1;fill-rule:nonzero;stroke:#ffffff;stroke-width:0.538308;stroke-linecap:round;stroke-linejoin:round;stroke-dasharray:none;stroke-dashoffset:0;stroke-opacity:0.99;paint-order:normal"
           d="m 76.724535,39.521778 c 8.286247,-8.472116 8.440811,-8.693241 9.180747,-13.134433 0.55099,-3.307234 0.476036,-4.215011 -0.5941,-7.192475 -0.73122,-2.034534 -2.765568,-4.882791 -4.447432,-6.226807 -2.044295,-1.633651 -3.789704,-2.396737 -6.476832,-2.831718 -5.315844,-0.860338 -8.724209,0.35684 -13.663414,4.87989 -3.755142,3.438768 -9.035069,8.83807 -8.959526,9.162115 0.06824,0.292724 7.378238,7.691894 15.853918,16.047303 l 4.285855,4.225047 z"
           id="path43" /><path
           style="opacity:1;fill:none;fill-opacity:1;fill-rule:nonzero;stroke:#ffffff;stroke-width:0.538308;stroke-linecap:round;stroke-linejoin:round;stroke-dasharray:none;stroke-dashoffset:0;stroke-opacity:0.99;paint-order:normal"
           d="m 77.134853,38.452742 c 5.720048,-5.877491 7.077761,-7.522518 7.754755,-9.395737 1.627424,-4.50304 1.026371,-8.956441 -1.731986,-12.832846 -2.455482,-3.450769 -4.947638,-5.033629 -8.922799,-5.667223 -5.218768,-0.8318088 -8.294394,0.319544 -13.479057,5.045838 -2.933826,2.674446 -8.271373,8.096002 -8.322341,8.453333 -0.02021,0.141697 0.306955,0.623428 0.727042,1.070515 2.627137,2.796047 18.484457,18.591264 18.698645,18.625403 0.05638,0.009 2.430473,-2.375694 5.275741,-5.299283 z"
           id="path44" /><path
           style="opacity:1;fill:none;fill-opacity:1;fill-rule:nonzero;stroke:#ffffff;stroke-width:0.538308;stroke-linecap:round;stroke-linejoin:round;stroke-dasharray:none;stroke-dashoffset:0;stroke-opacity:0.99;paint-order:normal"
           d="m 72.6843,42.553148 c 0.321497,-0.308703 0.594248,-0.622329 0.606145,-0.696965 0.01189,-0.07461 1.461609,-1.602355 3.221593,-3.394975 7.022278,-7.152406 8.019981,-8.562104 8.589747,-12.136809 0.606448,-3.804852 -0.180286,-6.876345 -2.604795,-10.169347 -1.62864,-2.212065 -3.125196,-3.489702 -5.016389,-4.282578 -1.513144,-0.634388 -5.028109,-1.252286 -6.619597,-1.163708 -3.064625,0.170665 -5.943517,1.728231 -9.977575,5.398148 -3.379184,3.074145 -8.035896,7.873386 -7.910309,8.152402 0.246413,0.547482 18.529994,18.759943 18.890963,18.817477 0.129635,0.02066 0.498744,-0.215016 0.820225,-0.523696 z"
           id="path45" /><path
           style="opacity:1;fill:none;fill-opacity:1;fill-rule:nonzero;stroke:#ffffff;stroke-width:0.538308;stroke-linecap:round;stroke-linejoin:round;stroke-dasharray:none;stroke-dashoffset:0;stroke-opacity:0.99;paint-order:normal"
           d="m 73.207903,41.338137 c 0.697038,-0.735719 2.782463,-2.921328 4.634276,-4.85692 1.851816,-1.935592 4.00155,-4.36538 4.777197,-5.399556 1.341678,-1.788845 1.431779,-1.986064 1.85276,-4.055347 0.852775,-4.191729 0.206286,-7.048871 -2.40514,-10.629464 -1.227619,-1.683234 -1.904345,-2.369359 -3.197434,-3.241877 l -1.640239,-1.106765 -3.28078,-0.522917 c -3.221265,-0.513431 -3.312056,-0.514847 -5.00733,-0.06127 -2.035224,0.544179 -5.318868,2.676125 -8.144827,5.288098 -3.125353,2.888713 -7.207048,7.172829 -7.133692,7.487465 0.09371,0.401986 10.066907,10.476337 17.613688,17.792352 l 0.664174,0.643887 z"
           id="path46" /><path
           style="opacity:1;fill:none;fill-opacity:1;fill-rule:nonzero;stroke:#ffffff;stroke-width:0.538308;stroke-linecap:round;stroke-linejoin:round;stroke-dasharray:none;stroke-dashoffset:0;stroke-opacity:0.99;paint-order:normal"
           d="m 75.608715,38.209493 c 4.414927,-4.655155 6.807469,-7.396031 7.587298,-8.691908 0.695983,-1.156568 1.303459,-4.409444 1.185412,-6.347604 -0.190505,-3.128012 -2.86427,-7.600009 -5.829034,-9.7493 l -1.531844,-1.110534 -3.211434,-0.434052 c -2.961172,-0.40043 -3.323519,-0.402567 -4.650134,-0.02836 -2.953401,0.833057 -7.433078,4.278753 -12.540948,9.646336 -1.177617,1.237488 -2.231128,2.354043 -2.341133,2.481219 -0.208148,0.240628 3.163696,3.8033 10.414774,11.004242 5.220602,5.184506 7.045236,6.950468 7.208229,6.976447 0.07439,0.01186 1.743356,-1.674009 3.708796,-3.746409 z"
           id="path47" /><path
           style="opacity:1;fill:none;fill-opacity:1;fill-rule:nonzero;stroke:#ffffff;stroke-width:0.538308;stroke-linecap:round;stroke-linejoin:round;stroke-dasharray:none;stroke-dashoffset:0;stroke-opacity:0.99;paint-order:normal"
           d="m 73.336452,39.98326 c 2.827635,-2.916269 7.519196,-8.078152 8.612388,-9.475764 1.106877,-1.415119 1.184627,-1.599763 1.633542,-3.879778 0.599303,-3.043852 0.427584,-4.696421 -0.738807,-7.109946 -1.064813,-2.203326 -3.237301,-4.857607 -4.918923,-6.00977 -1.284018,-0.879741 -1.308836,-0.886934 -4.344189,-1.255739 -3.713031,-0.451072 -4.497686,-0.285517 -7.436864,1.569823 -2.587899,1.633583 -4.935259,3.639339 -8.505216,7.267476 l -2.871656,2.91847 1.156472,1.358897 c 2.059275,2.419721 15.493652,15.840106 15.915054,15.898499 0.123652,0.01712 0.797835,-0.559851 1.498199,-1.282168 z"
           id="path48" /></g></g></g></svg>
