<?xml version="1.0" encoding="UTF-8" standalone="no"?>
<!-- Created with Inkscape (http://www.inkscape.org/) -->

<svg
   width="12.213145mm"
   height="12.213145mm"
   viewBox="0 0 12.213145 12.213145"
   version="1.1"
   id="svg1"
   xml:space="preserve"
   xmlns:xlink="http://www.w3.org/1999/xlink"
   xmlns="http://www.w3.org/2000/svg"
   xmlns:svg="http://www.w3.org/2000/svg"><defs
     id="defs1"><linearGradient
       id="linearGradient4"><stop
         style="stop-color:#ffffff;stop-opacity:0.33333334;"
         offset="0.26898047"
         id="stop4" /><stop
         style="stop-color:#ffffff;stop-opacity:0;"
         offset="0.78524947"
         id="stop5" /></linearGradient><linearGradient
       xlink:href="#linearGradient4"
       id="linearGradient5"
       x1="5.7499995"
       y1="11.988576"
       x2="19.25293"
       y2="11.988576"
       gradientUnits="userSpaceOnUse" /><linearGradient
       xlink:href="#linearGradient4"
       id="linearGradient8"
       gradientUnits="userSpaceOnUse"
       x1="5.7499995"
       y1="11.988576"
       x2="19.25293"
       y2="11.988576"
       gradientTransform="matrix(0.89550569,0,0,0.89550569,0.53743935,1.252738)" /><linearGradient
       xlink:href="#linearGradient4"
       id="linearGradient9"
       gradientUnits="userSpaceOnUse"
       x1="5.7499995"
       y1="11.988576"
       x2="19.25293"
       y2="11.988576" /></defs><g
     id="layer1"
     transform="translate(-18.472759,-4.7527107)"><g
       id="g9"
       transform="matrix(0.61065726,0,0,0.61065726,0.80285212,1.8503833)"><rect
         style="fill:#000000;fill-opacity:1;stroke:#ffffff;stroke-width:0.20945;stroke-opacity:0.5"
         id="rect5-1-9"
         width="19.79055"
         height="19.79055"
         x="29.040607"
         y="4.8575177" /><g
         style="fill:none"
         id="g1"
         transform="matrix(0.5742034,0,0,0.5742034,27.035253,7.8689115)"><g
           id="SVGRepo_bgCarrier"
           stroke-width="0" /><g
           id="SVGRepo_tracerCarrier"
           stroke-linecap="round"
           stroke-linejoin="round"
           stroke="#cccccc"
           stroke-width="0.05" /><g
           id="SVGRepo_iconCarrier"
           transform="matrix(-1,0,0,1,25.002928,0)"><path
             d="M 13.2942,7.95881 C 13.5533,7.63559 13.5013,7.16358 13.178,6.90453 12.8548,6.64549 12.3828,6.6975 12.1238,7.02072 Z M 6.811,14.8488 7.37903,15.3385 c 0.00586,-0.0068 0.01159,-0.0137 0.0172,-0.0207 z M 6.64,15.2668 5.89146,15.2179 5.8908,15.2321 Z M 6.5,18.2898 5.7508,18.2551 c -0.00172,0.0372 -6.7e-4,0.0745 0.00316,0.1116 z m 0.787,0.687 0.02452,0.7496 c 0.05002,-0.0017 0.09974,-0.0083 0.14844,-0.0199 z m 3,-0.711 0.173,0.7298 0.0116,-0.0029 z m 0.385,-0.244 0.5786,0.4773 0.0065,-0.0081 z M 17.2971,10.959 C 17.5562,10.6358 17.5043,10.1638 17.1812,9.90466 16.8581,9.64552 16.386,9.69742 16.1269,10.0206 Z M 12.1269,7.02052 c -0.2591,0.32313 -0.2073,0.79516 0.1159,1.05432 0.3231,0.25915 0.7951,0.20729 1.0543,-0.11583 z M 14.3,5.50976 14.8851,5.97901 c 0.0098,-0.01229 0.0193,-0.02489 0.0284,-0.03778 z m 1.629,-0.32 0.4798,-0.57644 C 16.3849,4.59344 16.3598,4.57507 16.3337,4.5583 Z m 2.237,1.862 0.5308,-0.52984 C 18.6805,6.50561 18.6635,6.49007 18.6458,6.47532 Z m 0.3369,0.82088 0.75,0.00412 v 0 z M 18.157,8.68976 17.632,8.15412 c -0.0212,0.02084 -0.0412,0.04292 -0.0599,0.06613 z m -2.0299,1.33054 c -0.2593,0.323 -0.2076,0.795 0.1154,1.0543 0.323,0.2593 0.7951,0.2077 1.0544,-0.1153 z M 13.4537,7.37862 C 13.3923,6.96898 13.0105,6.68666 12.6009,6.74805 12.1912,6.80943 11.9089,7.19127 11.9703,7.60091 Z m 3.3593,3.85428 c 0.4104,-0.0557 0.6979,-0.4337 0.6422,-0.8441 C 17.3994,9.97834 17.0215,9.69082 16.611,9.74659 Z M 12.1238,7.02072 6.22577,14.3797 7.39623,15.3178 13.2942,7.95881 Z M 6.24297,14.359 c -0.20736,0.2405 -0.33071,0.5421 -0.35138,0.859 l 1.49682,0.0976 c -5.5e-4,0.0084 -0.00384,0.0165 -0.00938,0.0229 z m -0.35217,0.8731 -0.14,3.023 1.4984,0.0694 0.14,-3.023 z m -0.13684,3.1346 c 0.08167,0.7919 0.76192,1.3857 1.55756,1.3597 L 7.26248,18.2272 c -0.0032,10e-5 -0.00477,-4e-4 -0.00579,-8e-4 C 7.25526,18.2259 7.25337,18.2249 7.25144,18.2232 7.2495,18.2215 7.24825,18.2198 7.24754,18.2185 7.24703,18.2175 7.24637,18.216 7.24604,18.2128 Z m 1.706,1.3398 3.00004,-0.711 -0.346,-1.4595 -2.99996,0.711 z m 3.01164,-0.7138 c 0.3055,-0.0776 0.5784,-0.2505 0.779,-0.4937 l -1.1572,-0.9545 c 0.0024,-0.0028 0.0055,-0.0048 0.009,-0.0057 z m 0.7855,-0.5017 6.04,-7.532 -1.1702,-0.9384 -6.04,7.532 z m 2.04,-10.53199 1.588,-1.98 -1.1702,-0.93849 -1.588,1.98 z m 1.6164,-2.01778 c 0.1386,-0.19712 0.4079,-0.25003 0.6108,-0.12 L 16.3337,4.5583 c -0.8793,-0.56346 -2.0464,-0.3342 -2.6472,0.52 z m 0.5357,-0.17503 2.237,1.862 0.9596,-1.15288 -2.237,-1.862 z m 2.186,1.81541 c 0.0759,0.07609 0.1183,0.17939 0.1177,0.28691 l 1.5,0.00824 C 19.2557,7.36905 19.0555,6.88127 18.6968,6.52192 Z m 0.1177,0.28691 c -5e-4,0.10752 -0.0441,0.21034 -0.1209,0.2856 l 1.05,1.07129 c 0.3626,-0.35539 0.5681,-0.84094 0.5709,-1.34865 z m -0.1808,0.35173 -1.445,1.80005 1.1698,0.939 1.445,-1.80002 z M 11.9703,7.60091 c 0.3493,2.3313 2.5068,3.94939 4.8427,3.63199 L 16.611,9.74659 C 15.0881,9.95352 13.6815,8.89855 13.4537,7.37862 Z"
             fill="#ffffff"
             id="path1" /></g></g><g
         style="fill:url(#linearGradient5);stroke:none"
         id="g2"
         transform="matrix(0.64120575,0,0,0.64120575,36.135132,7.0656485)"><g
           id="SVGRepo_iconCarrier-6"
           style="fill:url(#linearGradient9);fill-opacity:1;stroke:none"><path
             d="M 12.442471,8.3798976 C 12.674497,8.0904523 12.62793,7.6677646 12.338413,7.4357839 12.048986,7.2038121 11.626307,7.2503874 11.394371,7.5398327 Z m -5.8057424,6.1700254 0.5086741,0.438529 c 0.00525,-0.0061 0.010379,-0.01227 0.015403,-0.01854 z m -0.1531314,0.374321 -0.6703219,-0.04379 -5.91e-4,0.01272 z m -0.1253708,2.707114 -0.6709129,-0.03107 c -0.00154,0.03331 -6e-4,0.06672 0.00283,0.09994 z m 0.7047629,0.615212 0.021958,0.671272 c 0.044793,-0.0015 0.089318,-0.0074 0.1329289,-0.01782 z m 2.6865171,-0.636704 0.1549225,0.65354 0.010388,-0.0026 z m 0.3447696,-0.218504 0.51814,0.427425 0.0058,-0.0073 z m 5.932815,-6.324777 C 16.259116,10.777157 16.21264,10.354479 15.923302,10.122417 15.633964,9.8903561 15.211196,9.9368328 14.97917,10.226242 Z M 11.397147,7.5396536 c -0.232025,0.2893648 -0.185638,0.7120703 0.103789,0.9441496 0.289338,0.2320703 0.712017,0.1856293 0.944132,-0.1037265 z m 1.946024,-1.3528942 0.52396,0.4202161 c 0.0088,-0.011006 0.01728,-0.022289 0.02543,-0.033832 z M 14.80195,5.9001976 15.231613,5.3839923 c -0.0214,-0.017803 -0.04388,-0.034253 -0.06725,-0.049271 z m 2.003246,1.6674316 0.475334,-0.4744747 c -0.0146,-0.014606 -0.02982,-0.028522 -0.04567,-0.041731 z m 0.301696,0.7351027 0.671629,0.00369 v 0 z m -0.309756,0.7317356 -0.47014,-0.4796686 c -0.01899,0.018662 -0.0369,0.038435 -0.05364,0.05922 z m -1.817787,1.1915065 c -0.232204,0.289248 -0.185907,0.711927 0.103342,0.944131 0.289248,0.232205 0.712016,0.185997 0.944221,-0.103251 z M 12.585304,7.8603342 c -0.05498,-0.366835 -0.396888,-0.6196541 -0.763687,-0.564679 -0.366889,0.054966 -0.61969,0.396906 -0.564706,0.763741 z m 3.008273,3.4515298 C 15.961092,11.261984 16.21855,10.923483 16.16867,10.555968 16.1187,10.188398 15.78029,9.9309225 15.412684,9.9808648 Z M 11.394371,7.5398327 6.1126518,14.129841 7.1608054,14.969915 12.442471,8.3798976 Z M 6.1280545,14.111304 c -0.185692,0.215369 -0.2961527,0.485454 -0.3146628,0.76924 l 1.3404109,0.0874 c -4.926e-4,0.0075 -0.00344,0.01478 -0.0084,0.02051 z M 5.8126843,14.89317 5.6873135,17.600284 7.0291392,17.662432 7.15451,14.955318 Z m -0.122541,2.807052 c 0.073136,0.709151 0.6823037,1.240903 1.3948038,1.21762 l -0.043916,-1.342543 c -0.00287,9e-5 -0.00427,-3.58e-4 -0.00518,-7.16e-4 -0.00128,-4.48e-4 -0.00297,-0.0013 -0.0047,-0.0029 -0.00174,-0.0015 -0.00286,-0.003 -0.00349,-0.0042 -4.567e-4,-8.95e-4 -0.00105,-0.0022 -0.00134,-0.0051 z m 1.5277327,1.199799 2.6865529,-0.636705 -0.309845,-1.30699 -2.6864812,0.636704 z m 2.6969408,-0.639212 c 0.2735772,-0.06949 0.5179602,-0.224324 0.6975992,-0.442111 l -1.0362795,-0.85476 c 0.00215,-0.0025 0.00493,-0.0043 0.00806,-0.0051 z M 10.618237,17.811534 16.027091,11.066585 14.97917,10.226242 9.5703157,16.971191 Z M 12.445068,8.3800767 13.867131,6.6069755 12.81921,5.7665523 11.397147,7.5396536 Z M 13.892564,6.5731433 C 14.016681,6.3966212 14.25784,6.34924 14.439538,6.4656826 l 0.724823,-1.130961 C 14.376943,4.8301399 13.331798,5.0354436 12.793778,5.8003845 Z m 0.479722,-0.1567404 2.003246,1.6674316 0.859327,-1.0324106 -2.003246,-1.6674316 z m 1.957575,1.62571 c 0.06797,0.068139 0.105939,0.1606448 0.105401,0.2569295 l 1.343259,0.00738 c 0.0025,-0.4546572 -0.176773,-0.891467 -0.497991,-1.2132669 z m 0.105401,0.2569295 c -4.47e-4,0.096285 -0.03949,0.1883607 -0.108266,0.2557565 l 0.940281,0.9593463 c 0.32471,-0.3182538 0.508737,-0.7530666 0.511244,-1.2077238 z m -0.161907,0.3149763 -1.294006,1.6119553 1.047563,0.84088 1.294006,-1.6119286 z M 11.256911,8.0593962 c 0.3128,2.0876928 2.244854,3.5367008 4.336666,3.2524678 L 15.412684,9.9808648 C 14.048919,10.166172 12.789301,9.2214402 12.585304,7.8603342 Z"
             fill="#ffffff"
             id="path1-4"
             style="fill:url(#linearGradient8);fill-opacity:1;stroke:none;stroke-width:0.895506" /></g></g><rect
         style="fill:#ffffff;fill-opacity:1;stroke-width:0.302371"
         id="rect3"
         width="0.77811432"
         height="14.463128"
         x="38.546825"
         y="7.5212288" /></g></g></svg>
